HIERARCHY
ROOT Hips
{
	OFFSET 0.000000 0.000000 0.000000
	CHANNELS 6 Xposition Yposition Zposition Xrotation Yrotation Zrotation
	JOINT LeftUpLeg_virtual
	{
		OFFSET 0.000000 0.000000 0.000000
		CHANNELS 3 Xrotation Yrotation Zrotation
		JOINT LeftUpLeg
		{
			OFFSET 15.427100 -6.655098 0.678600
			CHANNELS 3 Xrotation Yrotation Zrotation
			JOINT LeftLeg
			{
				OFFSET 4.081073 -39.591068 13.024000
				CHANNELS 3 Xrotation Yrotation Zrotation
				JOINT LeftFoot
				{
					OFFSET -4.081074 -37.707932 -15.979700
					CHANNELS 3 Xrotation Yrotation Zrotation
					JOINT LeftToeBase
					{
						OFFSET 5.346399 -15.068900 20.645000
						CHANNELS 3 Xrotation Yrotation Zrotation
						JOINT LeftToe_End
						{
							OFFSET 2.754700 0.931300 11.300900
							CHANNELS 3 Xrotation Yrotation Zrotation
							End Site
							{
								OFFSET 0 0 0
							}
						}
					}
				}
			}
		}
	}
	JOINT RightUpLeg_virtual
	{
		OFFSET 0.000000 0.000000 0.000000
		CHANNELS 3 Xrotation Yrotation Zrotation
		JOINT RightUpLeg
		{
			OFFSET -15.569500 -6.655098 0.678600
			CHANNELS 3 Xrotation Yrotation Zrotation
			JOINT RightLeg
			{
				OFFSET -4.081825 -39.591045 13.023800
				CHANNELS 3 Xrotation Yrotation Zrotation
				JOINT RightFoot
				{
					OFFSET 4.081824 -37.707954 -15.979600
					CHANNELS 3 Xrotation Yrotation Zrotation
					JOINT RightToeBase
					{
						OFFSET -5.346400 -15.068900 20.645000
						CHANNELS 3 Xrotation Yrotation Zrotation
						JOINT RightToe_End
						{
							OFFSET -2.754700 0.931300 11.300900
							CHANNELS 3 Xrotation Yrotation Zrotation
							End Site
							{
								OFFSET 0 0 0
							}
						}
					}
				}
			}
		}
	}
	JOINT Spine_virtual
	{
		OFFSET 0.000000 0.000000 0.000000
		CHANNELS 3 Xrotation Yrotation Zrotation
		JOINT Spine
		{
			OFFSET -0.279200 12.230698 -2.892100
			CHANNELS 3 Xrotation Yrotation Zrotation
			JOINT Spine1
			{
				OFFSET -0.232667 10.192268 -1.242267
				CHANNELS 3 Xrotation Yrotation Zrotation
				JOINT Spine1_split
				{
					OFFSET -0.232667 10.192268 -1.242267
					CHANNELS 3 Xrotation Yrotation Zrotation
					JOINT Spine2
					{
						OFFSET -0.232667 10.192268 -1.242267
						CHANNELS 3 Xrotation Yrotation Zrotation
						JOINT Neck_virtual
						{
							OFFSET 0.000000 0.000000 0.000000
							CHANNELS 3 Xrotation Yrotation Zrotation
							JOINT Neck
							{
								OFFSET -0.418800 17.814194 8.416900
								CHANNELS 3 Xrotation Yrotation Zrotation
								JOINT Head
								{
									OFFSET 0.000000 7.031097 3.806800
									CHANNELS 3 Xrotation Yrotation Zrotation
									JOINT HeadTop_End
									{
										OFFSET 0.000000 24.646606 12.978600
										CHANNELS 3 Xrotation Yrotation Zrotation
										End Site
										{
											OFFSET 0 0 0
										}
									}
								}
							}
						}
						JOINT LeftShoulder_virtual
						{
							OFFSET 0.000000 0.000000 0.000000
							CHANNELS 3 Xrotation Yrotation Zrotation
							JOINT LeftShoulder
							{
								OFFSET 8.476499 7.247704 -3.868750
								CHANNELS 3 Xrotation Yrotation Zrotation
								JOINT LeftShoulder_split
								{
									OFFSET 8.476499 7.247704 -3.868750
									CHANNELS 3 Xrotation Yrotation Zrotation
									JOINT LeftArm
									{
										OFFSET 9.308998 -2.777710 0.208600
										CHANNELS 3 Xrotation Yrotation Zrotation
										JOINT LeftForeArm
										{
											OFFSET 29.972298 0.000000 0.000000
											CHANNELS 3 Xrotation Yrotation Zrotation
											JOINT LeftHand
											{
												OFFSET 26.026505 0.000000 0.000000
												CHANNELS 3 Xrotation Yrotation Zrotation
												End Site
												{
													OFFSET 0 0 0
												}
											}
										}
									}
								}
							}
						}
						JOINT RightShoulder_virtual
						{
							OFFSET 0.000000 0.000000 0.000000
							CHANNELS 3 Xrotation Yrotation Zrotation
							JOINT RightShoulder
							{
								OFFSET -7.570500 7.247704 -3.868750
								CHANNELS 3 Xrotation Yrotation Zrotation
								JOINT RightShoulder_split
								{
									OFFSET -7.570500 7.247704 -3.868750
									CHANNELS 3 Xrotation Yrotation Zrotation
									JOINT RightArm
									{
										OFFSET -9.308998 -2.777710 0.208500
										CHANNELS 3 Xrotation Yrotation Zrotation
										JOINT RightForeArm
										{
											OFFSET -29.972300 0.000000 0.000000
											CHANNELS 3 Xrotation Yrotation Zrotation
											JOINT RightHand
											{
												OFFSET -26.026505 0.000000 0.000000
												CHANNELS 3 Xrotation Yrotation Zrotation
												End Site
												{
													OFFSET 0 0 0
												}
											}
										}
									}
								}
							}
						}
					}
				}
			}
		}
	}
}
MOTION
Frames: 5
Frame Time: 0.03333333
0.343785 94.238083 -1.789700 0.000000 0.000000 0.000000 -7.163519 -4.415589 3.728791 -9.534685 11.516878 6.556700 12.911213 6.685025 0.717733 5.342028 0.888095 -7.298388 -0.000064 0.000000 -0.000002 0.000000 0.000000 0.000000 -7.163519 -4.415589 3.728791 6.836362 -15.527445 -7.768608 18.912584 -8.194885 -3.069678 -18.065799 -6.986732 9.282391 -2.342332 -0.000000 0.000002 0.000000 0.000000 0.000000 -7.163519 -4.415589 3.728791 5.301385 2.203773 -2.839705 1.478230 0.730365 -0.788770 0.000000 0.000000 0.000000 0.000000 0.000000 0.000000 1.440798 0.721971 -0.741219 2.260305 5.360284 1.627124 3.299471 -10.639882 2.336761 0.000000 0.000000 0.000000 1.440798 0.721971 -0.741219 -0.595444 -16.331998 -20.041826 0.000000 0.000000 0.000000 11.139993 0.583280 -33.762407 0.051920 -89.545009 0.051611 0.000000 0.000000 0.000000 1.440798 0.721971 -0.741219 0.754162 18.436586 11.539477 0.000000 0.000000 0.000000 10.691746 23.557104 38.362205 -179.999513 82.036145 179.999527 0.000000 0.000000 0.000000 
0.688067 93.576546 -1.847675 0.000000 0.000000 0.000000 -6.998620 -4.719056 3.728776 -10.805377 11.393168 6.430169 15.011070 6.316867 0.909607 4.354598 1.664946 -7.336298 -0.000021 -0.000009 0.000002 0.000000 0.000000 0.000000 -6.998620 -4.719056 3.728776 5.581469 -15.253855 -8.366387 20.816299 -7.923189 -2.998943 -18.855248 -7.103302 9.507179 -2.342332 -0.000002 0.000002 0.000000 0.000000 0.000000 -6.998620 -4.719056 3.728776 5.295269 2.067162 -2.820884 1.478231 0.545823 -0.771255 0.000000 0.000000 0.000000 0.000000 0.000000 0.000000 1.440799 0.547799 -0.686543 2.278950 5.079157 1.446695 3.068805 -10.293894 2.008880 0.000000 0.000000 0.000000 1.440799 0.547799 -0.686543 -0.595445 -16.331997 -20.041827 0.000000 0.000000 0.000000 11.673893 1.386664 -33.751079 -8.125577 -89.980215 -8.117554 0.000000 0.000000 0.000000 1.440799 0.547799 -0.686543 0.748013 18.465153 11.541427 0.000000 0.000000 0.000000 10.484200 24.073579 38.792944 -179.999950 82.426217 179.999937 0.000000 0.000000 0.000000 
0.980165 93.012543 -1.926598 0.000000 0.000000 0.000000 -6.831807 -5.018777 3.776463 -11.867380 11.312820 6.261669 16.680821 5.874957 1.029356 3.602186 2.504961 -7.311565 -0.000078 0.000002 0.000002 0.000000 0.000000 0.000000 -6.831807 -5.018777 3.776463 4.433157 -14.987569 -8.924851 22.452215 -7.680893 -2.945801 -19.506535 -7.185456 9.686488 -2.342332 -0.000000 0.000002 0.000000 0.000000 0.000000 -6.831807 -5.018777 3.776463 5.291357 1.947055 -2.845729 1.478231 0.373631 -0.754921 0.000000 0.000000 0.000000 0.000000 0.000000 0.000000 1.440799 0.385386 -0.635566 2.296012 4.796858 1.267087 2.850221 -9.940152 1.700444 0.000000 0.000000 0.000000 1.440799 0.385386 -0.635566 -0.595445 -16.331997 -20.041826 0.000000 0.000000 0.000000 12.260829 2.275649 -33.762626 -179.978736 -89.544572 -179.979200 0.000000 0.000000 0.000000 1.440799 0.385386 -0.635566 0.745093 18.495007 11.543410 0.000000 0.000000 0.000000 10.252224 24.630844 39.267454 179.999800 82.846889 -179.999786 0.000000 0.000000 0.000000 
1.290699 92.473160 -2.003372 0.000000 0.000000 0.000000 -6.664973 -5.331069 3.835291 -12.860729 11.258344 6.057531 18.229328 5.397388 1.122070 2.903383 3.395256 -7.232029 -0.000090 -0.000002 0.000003 0.000000 0.000000 0.000000 -6.664973 -5.331069 3.835291 3.316963 -14.720340 -9.492266 23.992300 -7.423208 -2.896842 -20.096913 -7.255403 9.863659 -2.342332 -0.000004 0.000002 0.000000 0.000000 0.000000 -6.664973 -5.331069 3.835291 5.287865 1.814593 -2.884454 1.476995 0.189088 -0.737423 0.000000 0.000000 0.000000 0.000000 0.000000 0.000000 1.440799 0.211210 -0.580904 2.311596 4.515614 1.086977 2.627178 -9.591970 1.375071 0.000000 0.000000 0.000000 1.440799 0.211210 -0.580904 -0.595445 -16.331997 -20.041826 0.000000 0.000000 0.000000 12.881843 3.223690 -33.784984 179.999882 -89.027629 -179.999964 0.000000 0.000000 0.000000 1.440799 0.211210 -0.580904 0.747685 18.526434 11.539873 0.000000 0.000000 0.000000 9.993118 25.212709 39.777328 -179.999732 83.290537 179.999718 0.000000 0.000000 0.000000 
1.679296 91.917320 -2.063061 0.000000 0.000000 0.000000 -6.499714 -5.675742 3.888825 -13.848130 11.228589 5.809392 19.816406 4.918124 1.200698 2.154257 4.326993 -7.082408 -0.000092 -0.000003 -0.000007 0.000000 0.000000 0.000000 -6.499714 -5.675742 3.888825 2.185303 -14.439310 -10.118951 25.526934 -7.113663 -2.851491 -20.656066 -7.327397 10.078911 -2.342332 -0.000003 0.000002 0.000000 0.000000 0.000000 -6.499714 -5.675742 3.888825 5.284001 1.642548 -2.927533 1.473639 -0.032509 -0.716422 0.000000 0.000000 0.000000 0.000000 0.000000 0.000000 1.440415 0.001753 -0.515177 2.325797 4.237667 0.905045 2.383498 -9.262443 0.996370 0.000000 0.000000 0.000000 1.440415 0.001753 -0.515177 -0.595445 -16.331997 -20.041826 0.000000 0.000000 0.000000 13.506014 4.185167 -33.816294 -179.995374 -88.489875 -179.995319 0.000000 0.000000 0.000000 1.440415 0.001753 -0.515177 0.746111 18.573407 11.536198 0.000000 0.000000 0.000000 9.710933 25.784833 40.290477 -179.999582 83.749471 179.999527 0.000000 0.000000 0.000000 
